# Blender v2.83.12 OBJ File: 'vr_hand_adjustment.blend'
# www.blender.org
mtllib seg_thumb_tip_vhacd.mtl
o seg_thumb_tip_vhacd_seg_thumb_tip_hull_1
v -8.041989 -4.831904 -26.940153
v 9.390502 0.829116 -1.667178
v 9.390502 -0.913583 -1.667178
v -5.426106 0.394358 12.282946
v -2.375467 7.368823 -12.120472
v 4.595328 -10.496593 -28.246815
v -2.375467 -5.703254 10.539181
v 5.903271 -2.652613 -29.553476
v 3.287388 4.751106 11.408737
v 5.030087 -4.395312 10.971634
v 6.774620 5.624290 -12.120472
v -5.426106 -10.061836 -23.015518
v -9.349931 -0.478826 -1.230075
v -2.812059 -3.523963 -33.041008
v -4.991350 6.059048 7.488752
v -8.041989 3.881591 -15.166248
v 1.109931 -11.371612 -23.447971
v 9.390502 -0.478826 -15.170898
v 2.852630 6.930397 4.870780
v -4.554758 -9.627079 -30.423035
v -8.041989 -3.960555 0.076587
v 6.774620 -8.755729 -27.372608
v 1.981281 4.751106 -19.095535
v 7.645969 3.444999 5.740337
v 4.160572 -7.011195 -32.603905
v 3.723980 -2.216022 13.589607
v -3.683408 -1.350175 -30.423035
v 2.852630 -6.139846 8.358311
v -5.426106 -4.397147 10.102076
v -8.041989 2.573649 5.307883
v -3.246816 3.444999 13.152504
v -7.605399 -7.445953 -27.809711
vt 0.710211 0.069793
vt 0.682190 0.000000
vt 0.112186 0.093089
vt 0.130834 0.069793
vt 0.383327 0.069793
vt 0.869166 0.232576
vt 0.448644 0.372161
vt 0.934583 0.372161
vt 0.214998 0.209377
vt 0.205724 0.558144
vt 0.672816 1.000000
vt 0.672816 1.000000
vt 0.383227 1.000000
vt 0.448644 0.860415
vt 0.074791 0.813919
vt 0.813024 0.651135
vt 0.953231 0.674334
vt 0.102812 0.744127
vt 0.056143 0.255873
vt 0.943857 0.767326
vt 0.121560 0.860415
vt 0.299063 0.604640
vt 0.831671 0.906911
vt 0.000000 0.348865
vt 0.009374 0.720928
vt 0.971978 0.209377
vt 1.000000 0.697631
vt 0.056143 0.302369
vt 0.887814 0.651135
vt 0.925209 0.209377
vt 0.822397 0.069793
vt 0.990626 0.325666
vn -0.9392 -0.3423 0.0281
vn -0.9939 0.0886 -0.0656
vn -0.5193 0.8545 -0.0122
vn -0.1854 -0.9722 0.1431
vn 1.0000 0.0000 0.0000
vn 0.9111 0.4104 -0.0397
vn 0.8264 0.4915 -0.2747
vn 0.1872 0.9818 -0.0323
vn 0.0002 0.9487 0.3162
vn -0.0924 0.9943 0.0541
vn -0.0430 -0.9769 -0.2094
vn -0.2010 -0.9762 -0.0809
vn 0.7881 -0.6065 0.1048
vn 0.5906 -0.7984 0.1177
vn 0.9573 -0.2889 -0.0093
vn 0.9687 0.0516 -0.2427
vn 0.4402 0.8024 -0.4030
vn 0.1816 0.9526 -0.2441
vn 0.9734 0.0000 0.2292
vn 0.9482 -0.1202 0.2940
vn 0.8579 0.5133 0.0208
vn 0.5440 0.8062 0.2326
vn 0.5782 0.8128 0.0710
vn 0.2872 0.4695 -0.8349
vn -0.1228 -0.3614 -0.9243
vn 0.0756 -0.7750 -0.6275
vn 0.6520 -0.5590 -0.5122
vn 0.8891 -0.0361 -0.4563
vn -0.2348 -0.3741 0.8972
vn 0.0923 -0.7422 0.6638
vn 0.8947 -0.0004 0.4467
vn 0.7967 0.2254 0.5607
vn -0.7425 0.3727 -0.5566
vn 0.1609 0.7850 -0.5982
vn -0.7452 0.5360 -0.3967
vn -0.3226 0.8633 -0.3882
vn 0.1612 0.8330 -0.5293
vn -0.1305 0.8987 -0.4188
vn 0.5245 -0.8422 0.1252
vn 0.1259 -0.8703 0.4761
vn 0.4025 -0.9065 0.1271
vn -0.0144 -0.9865 0.1631
vn -0.2942 -0.3959 0.8699
vn -0.4075 -0.9002 0.1540
vn -0.6297 -0.7657 0.1310
vn -0.9360 -0.2643 0.2327
vn -0.7952 0.4261 0.4314
vn -0.9355 0.3526 0.0225
vn -0.7644 0.6434 0.0411
vn -0.9407 -0.1406 0.3089
vn -0.9479 -0.1705 0.2692
vn -0.7846 0.4345 0.4422
vn -0.0637 0.8985 0.4343
vn -0.1810 -0.1478 0.9723
vn 0.1884 0.3041 0.9338
vn -0.9873 -0.1570 -0.0236
vn -0.7654 0.0844 -0.6380
vn -0.6434 -0.7561 -0.1201
vn -0.6906 -0.1094 -0.7149
vn -0.8174 -0.5731 0.0588
usemtl None
s off
f 21/1/1 13/2/1 32/3/1
f 1/4/2 13/2/2 16/5/2
f 15/6/3 5/7/3 16/5/3
f 7/8/4 12/9/4 17/10/4
f 2/11/5 3/12/5 18/13/5
f 11/14/6 2/11/6 18/13/6
f 8/15/7 11/14/7 18/13/7
f 11/14/8 5/7/8 19/16/8
f 15/6/9 9/17/9 19/16/9
f 5/7/10 15/6/10 19/16/10
f 6/18/11 17/10/11 20/19/11
f 17/10/12 12/9/12 20/19/12
f 3/12/13 10/20/13 22/21/13
f 10/20/14 6/18/14 22/21/14
f 18/13/15 3/12/15 22/21/15
f 8/15/16 18/13/16 22/21/16
f 11/14/17 8/15/17 23/22/17
f 5/7/18 11/14/18 23/22/18
f 3/12/19 2/11/19 24/23/19
f 10/20/20 3/12/20 24/23/20
f 2/11/21 11/14/21 24/23/21
f 19/16/22 9/17/22 24/23/22
f 11/14/23 19/16/23 24/23/23
f 14/24/24 8/15/24 25/25/24
f 20/19/25 14/24/25 25/25/25
f 6/18/26 20/19/26 25/25/26
f 22/21/27 6/18/27 25/25/27
f 8/15/28 22/21/28 25/25/28
f 4/26/29 7/8/29 26/27/29
f 7/8/30 10/20/30 26/27/30
f 10/20/31 24/23/31 26/27/31
f 24/23/32 9/17/32 26/27/32
f 14/24/33 1/4/33 27/28/33
f 8/15/34 14/24/34 27/28/34
f 1/4/35 16/5/35 27/28/35
f 16/5/36 5/7/36 27/28/36
f 23/22/37 8/15/37 27/28/37
f 5/7/38 23/22/38 27/28/38
f 6/18/39 10/20/39 28/29/39
f 10/20/40 7/8/40 28/29/40
f 17/10/41 6/18/41 28/29/41
f 7/8/42 17/10/42 28/29/42
f 7/8/43 4/26/43 29/30/43
f 12/9/44 7/8/44 29/30/44
f 21/1/45 12/9/45 29/30/45
f 13/2/46 21/1/46 29/30/46
f 4/26/47 15/6/47 30/31/47
f 16/5/48 13/2/48 30/31/48
f 15/6/49 16/5/49 30/31/49
f 29/30/50 4/26/50 30/31/50
f 13/2/51 29/30/51 30/31/51
f 15/6/52 4/26/52 31/32/52
f 9/17/53 15/6/53 31/32/53
f 4/26/54 26/27/54 31/32/54
f 26/27/55 9/17/55 31/32/55
f 13/2/56 1/4/56 32/3/56
f 1/4/57 14/24/57 32/3/57
f 20/19/58 12/9/58 32/3/58
f 14/24/59 20/19/59 32/3/59
f 12/9/60 21/1/60 32/3/60
