# Blender v2.83.12 OBJ File: 'vr_hand_adjustment.blend'
# www.blender.org
mtllib thumb_vhacd.mtl
o thumb_vhacd_thumb_hull_1
v -5.848886 -18.842478 -46.339508
v 9.295918 -1.944026 -18.838749
v 9.295918 -3.352499 -18.279161
v -8.878577 -0.355853 -16.207924
v -1.305262 -0.504200 -32.990173
v 5.256938 -22.513029 -40.535946
v -2.821023 -7.860346 -13.226382
v 6.770868 -15.005138 -43.518837
v -5.344243 -20.833773 -36.314232
v 5.761580 3.867866 -17.886011
v -9.383222 -7.064773 -33.094170
v 5.256938 -6.922497 -13.598990
v 7.780157 -4.065612 -33.749763
v -4.839599 4.335091 -18.071640
v 1.722601 -15.842389 -46.987808
v -8.878577 -6.440274 -19.223097
v -6.858173 -21.380484 -43.156616
v 2.225417 -21.773321 -35.940948
v -7.362817 -3.410146 -33.466545
v 6.770868 -20.628792 -44.002731
v 9.295918 -7.064773 -33.094170
v -3.828482 -14.158375 -45.482330
v -0.802447 -23.346882 -44.006271
v 2.731889 -0.131117 -32.051132
v 8.789444 -6.066807 -18.288034
v 1.722601 -19.402102 -47.748074
v 7.780157 -18.667536 -40.432861
v -5.848886 -6.451873 -13.785970
v 8.284800 1.519845 -16.953140
v -7.869289 -19.228857 -41.840752
v 2.225417 -3.401063 -36.176842
v -2.821023 -22.145088 -36.876686
v 0.206889 7.474152 3.498072
v -1.307034 -6.317710 8.435070
v 2.225454 -6.317710 8.435070
v 3.741207 4.808452 -18.255880
v -9.383122 -1.386689 -14.703446
v 7.780165 -4.575552 -14.527607
v 7.780165 3.157343 6.301210
v -5.848805 3.242253 10.610649
v -2.819130 -7.856647 -13.224026
v -6.858088 5.823597 -11.594340
v -8.373840 -3.390587 0.752813
v 5.256958 -3.228258 12.099386
v 8.284805 3.951959 -13.569389
v 2.730096 4.456390 12.301374
v -3.323771 -3.141924 13.692636
v 3.741207 7.321880 -10.559024
v 9.295918 -2.349530 -3.458425
v -9.383122 1.866272 -2.414717
v -4.839522 6.530284 6.588692
v -4.839522 4.338149 -18.069029
v 2.730096 -7.856647 -13.224026
v -3.323771 7.419867 -11.682990
v 6.266242 5.878922 3.589338
v 6.770883 -5.447101 -1.682209
v 9.295918 0.958271 -15.638134
v -4.839522 -5.565101 7.593540
v -6.353446 -5.980947 -13.969242
v -6.353446 -2.195421 10.597940
v -0.295924 0.421889 14.449835
v 9.295918 2.049553 -1.948046
v -1.307034 5.395158 11.928402
v -8.878481 1.898080 -16.008488
vt 0.055605 0.459377
vt 0.152814 0.783771
vt 0.250122 0.351312
vt 1.000000 0.027017
vt 1.000000 0.351312
vt 1.000000 0.810787
vt 1.000000 0.783771
vt 1.000000 0.243246
vt 0.513754 0.918853
vt 0.152814 0.864820
vt 0.055605 0.594558
vt 0.500049 0.000000
vt 0.861087 0.027017
vt 0.277827 0.621476
vt 0.041703 0.189213
vt 0.527655 0.108164
vt 0.569359 0.432459
vt 0.916593 1.000000
vt 0.916593 1.000000
vt 0.500049 1.000000
vt 0.111209 0.297377
vt 0.097308 0.135180
vt 0.083309 0.864820
vt 0.597161 0.648590
vt 0.888791 0.972886
vt 0.000000 0.594558
vt 0.194518 0.918853
vt 1.000000 0.189213
vt 0.277827 0.216229
vt 1.000000 0.945869
vt 0.152814 0.081049
vt 0.458443 0.621476
vt 0.228171 0.924922
vt 0.000000 0.974941
vt 0.035239 0.824980
vt 0.719264 0.000000
vt 0.719264 0.000000
vt 0.000000 0.325176
vt 0.000000 1.000000
vt 0.000000 0.500000
vt 0.877251 0.075176
vt 0.771926 0.475039
vt 0.982381 0.425117
vt 0.929816 0.050020
vt 0.140368 0.874902
vt 0.280834 0.974941
vt 0.386061 0.400059
vt 0.035239 0.649961
vt 0.508712 0.275157
vt 0.473865 0.574980
vt 0.824491 0.625000
vt 0.912197 0.400157
vt 0.000000 0.325176
vt 0.736785 0.724941
vt 0.245791 1.000000
vt 0.719264 0.649863
vt 0.403681 0.225039
vt 0.035141 0.774961
vt 0.701742 0.050020
vt 0.000000 0.425117
vt 0.842013 0.150157
vt 1.000000 0.200176
vt 0.491288 0.574883
vt 0.982381 0.475137
vn 0.0348 -0.9838 0.1757
vn -0.0000 0.3692 0.9293
vn 0.3862 0.5943 -0.7054
vn -0.9991 -0.0184 0.0372
vn 0.4806 -0.7590 0.4393
vn 0.1217 -0.8341 0.5380
vn -0.7634 0.3679 -0.5309
vn -0.8708 0.4652 -0.1588
vn -0.7794 0.6016 -0.1749
vn -0.3791 0.8501 -0.3656
vn 1.0000 0.0000 0.0000
vn 0.8335 0.3233 -0.4481
vn -0.1813 0.2521 -0.9506
vn -0.7075 0.4105 -0.5753
vn -0.2707 0.6766 -0.6848
vn -0.3156 -0.6906 -0.6508
vn 0.3176 -0.8844 -0.3420
vn 0.5074 0.7948 -0.3329
vn 0.0472 0.9586 -0.2807
vn -0.0153 0.9500 -0.3118
vn 0.8026 -0.1516 0.5770
vn 0.6583 -0.6515 0.3771
vn -0.1642 0.2060 -0.9647
vn 0.5375 0.1761 -0.8247
vn 0.6051 0.0683 -0.7932
vn -0.1883 -0.6098 -0.7699
vn 0.2687 -0.7478 -0.6071
vn 0.8335 -0.5486 0.0658
vn 0.9584 0.0245 -0.2844
vn 0.9874 -0.1533 0.0384
vn 0.9633 0.0419 -0.2653
vn 0.9813 -0.1833 0.0596
vn 0.8024 -0.5337 0.2671
vn -0.4417 -0.7606 0.4757
vn -0.8494 -0.2343 0.4728
vn -0.6856 -0.6204 0.3807
vn 0.9486 0.1168 0.2941
vn 0.7634 -0.0173 0.6457
vn 0.7074 0.6640 -0.2421
vn 0.9331 0.3386 -0.1216
vn 0.8943 0.4159 -0.1652
vn -0.9044 0.1691 -0.3917
vn -0.8375 -0.4908 0.2401
vn -0.9872 -0.1537 0.0428
vn -0.8942 -0.1659 -0.4158
vn -0.8223 -0.5233 0.2237
vn 0.3799 0.5979 -0.7058
vn -0.0057 0.6560 -0.7547
vn -0.0957 0.6815 -0.7255
vn 0.3508 0.7125 -0.6077
vn 0.0736 0.7772 -0.6250
vn -0.3130 -0.8130 0.4910
vn -0.4256 -0.8897 0.1652
vn -0.0328 -0.8555 0.5167
vn 0.0384 -0.9823 0.1834
vn -0.2983 -0.9514 0.0759
vn -0.6091 0.7103 -0.3529
vn 0.0000 -0.9975 0.0709
vn 0.0000 -0.3692 -0.9293
vn 0.7680 0.2369 0.5951
vn 0.0000 -0.8560 0.5170
vn 0.1016 -0.8004 0.5908
vn 0.4468 0.8505 -0.2777
vn 0.9575 -0.1609 0.2395
vn -0.9856 -0.1632 0.0432
vn -0.7713 0.6336 0.0610
vn -0.8560 0.4843 0.1811
vn 0.0150 0.9999 -0.0071
vn 0.0624 0.9487 -0.3098
vn -0.1633 0.9860 0.0345
vn -0.4114 0.9114 0.0102
vn -0.0588 0.9044 -0.4225
vn -0.3965 0.8601 -0.3209
vn 0.2429 0.9369 0.2516
vn 0.6122 0.7024 0.3632
vn 0.2535 0.9659 0.0533
vn 0.5861 0.8099 -0.0220
vn 0.5776 -0.7936 0.1912
vn 0.7802 -0.6252 0.0189
vn 0.8103 -0.5580 0.1789
vn 0.3451 -0.9356 0.0745
vn 0.5421 -0.8402 -0.0144
vn 0.2598 -0.2579 -0.9306
vn 0.6389 0.5716 -0.5149
vn 0.9578 -0.2775 -0.0754
vn -0.2269 -0.9702 0.0848
vn -0.2830 -0.8652 0.4140
vn -0.8334 -0.5524 -0.0172
vn -0.2676 -0.3216 -0.9083
vn -0.4765 -0.8778 0.0504
vn -0.6017 -0.7967 0.0576
vn -0.7033 0.0636 0.7080
vn -0.9636 0.0888 0.2521
vn -0.9762 -0.0622 0.2079
vn -0.7937 -0.5627 0.2312
vn -0.6304 -0.6549 0.4168
vn 0.4562 0.1269 0.8808
vn 0.1684 -0.3397 0.9253
vn -0.4752 0.2229 0.8511
vn 0.9799 -0.0648 0.1888
vn 0.8349 0.5445 0.0803
vn 0.8030 0.5954 0.0276
vn 0.9413 0.3365 -0.0268
vn 0.1947 0.9436 0.2677
vn -0.0393 0.9718 0.2326
vn -0.4856 0.7325 0.4770
vn -0.4088 0.3452 0.8448
vn 0.0238 0.4559 0.8897
vn -0.9898 0.1376 -0.0364
vn -0.8739 0.4850 -0.0313
vn -0.2705 -0.3193 -0.9082
usemtl None
s off
f 23/1/1 6/2/1 32/3/1
f 4/4/2 7/5/2 10/6/2
f 10/6/2 7/5/2 12/7/2
f 4/4/2 10/6/2 14/8/2
f 13/9/3 8/10/3 15/11/3
f 4/4/4 11/12/4 16/13/4
f 6/2/5 12/7/5 18/14/5
f 12/7/6 7/5/6 18/14/6
f 1/15/7 11/12/7 19/16/7
f 11/12/8 4/4/8 19/16/8
f 4/4/9 14/8/9 19/16/9
f 14/8/10 5/17/10 19/16/10
f 2/18/11 3/19/11 21/20/11
f 8/10/12 13/9/12 21/20/12
f 15/11/13 1/15/13 22/21/13
f 1/15/14 19/16/14 22/21/14
f 19/16/15 5/17/15 22/21/15
f 17/22/16 1/15/16 23/1/16
f 20/23/17 6/2/17 23/1/17
f 10/6/18 13/9/18 24/24/18
f 14/8/19 10/6/19 24/24/19
f 5/17/20 14/8/20 24/24/20
f 3/19/21 12/7/21 25/25/21
f 12/7/22 6/2/22 25/25/22
f 1/15/23 15/11/23 26/26/23
f 15/11/24 8/10/24 26/26/24
f 8/10/25 20/23/25 26/26/25
f 23/1/26 1/15/26 26/26/26
f 20/23/27 23/1/27 26/26/27
f 6/2/28 20/23/28 27/27/28
f 20/23/29 8/10/29 27/27/29
f 21/20/30 3/19/30 27/27/30
f 8/10/31 21/20/31 27/27/31
f 3/19/32 25/25/32 27/27/32
f 25/25/33 6/2/33 27/27/33
f 7/5/2 4/4/2 28/28/2
f 9/29/34 7/5/34 28/28/34
f 4/4/35 16/13/35 28/28/35
f 16/13/36 9/29/36 28/28/36
f 3/19/37 2/18/37 29/30/37
f 12/7/38 3/19/38 29/30/38
f 10/6/2 12/7/2 29/30/2
f 13/9/39 10/6/39 29/30/39
f 2/18/40 21/20/40 29/30/40
f 21/20/41 13/9/41 29/30/41
f 11/12/42 1/15/42 30/31/42
f 9/29/43 16/13/43 30/31/43
f 16/13/44 11/12/44 30/31/44
f 1/15/45 17/22/45 30/31/45
f 17/22/46 9/29/46 30/31/46
f 13/9/47 15/11/47 31/32/47
f 15/11/48 22/21/48 31/32/48
f 22/21/49 5/17/49 31/32/49
f 24/24/50 13/9/50 31/32/50
f 5/17/51 24/24/51 31/32/51
f 7/5/52 9/29/52 32/3/52
f 9/29/53 17/22/53 32/3/53
f 18/14/54 7/5/54 32/3/54
f 6/2/55 18/14/55 32/3/55
f 17/22/56 23/1/56 32/3/56
f 42/33/57 52/34/57 64/35/57
f 35/36/58 34/37/58 41/38/58
f 36/39/59 38/40/59 41/38/59
f 44/41/60 39/42/60 46/43/60
f 34/37/61 35/36/61 47/44/61
f 35/36/62 44/41/62 47/44/62
f 45/45/63 36/39/63 48/46/63
f 39/42/64 44/41/64 49/47/64
f 37/48/65 43/49/65 50/50/65
f 42/33/66 50/50/66 51/51/66
f 50/50/67 40/52/67 51/51/67
f 36/39/59 41/38/59 52/34/59
f 35/36/58 41/38/58 53/53/58
f 41/38/59 38/40/59 53/53/59
f 33/54/68 48/46/68 54/55/68
f 48/46/69 36/39/69 54/55/69
f 51/51/70 33/54/70 54/55/70
f 42/33/71 51/51/71 54/55/71
f 36/39/72 52/34/72 54/55/72
f 52/34/73 42/33/73 54/55/73
f 33/54/74 46/43/74 55/56/74
f 46/43/75 39/42/75 55/56/75
f 48/46/76 33/54/76 55/56/76
f 45/45/77 48/46/77 55/56/77
f 44/41/78 35/36/78 56/57/78
f 38/40/79 49/47/79 56/57/79
f 49/47/80 44/41/80 56/57/80
f 35/36/81 53/53/81 56/57/81
f 53/53/82 38/40/82 56/57/82
f 38/40/83 36/39/83 57/58/83
f 36/39/84 45/45/84 57/58/84
f 49/47/85 38/40/85 57/58/85
f 41/38/86 34/37/86 58/59/86
f 34/37/87 47/44/87 58/59/87
f 43/49/88 37/48/88 59/60/88
f 52/34/59 41/38/59 59/60/59
f 37/48/89 52/34/89 59/60/89
f 41/38/90 58/59/90 59/60/90
f 58/59/91 43/49/91 59/60/91
f 47/44/92 40/52/92 60/61/92
f 40/52/93 50/50/93 60/61/93
f 50/50/94 43/49/94 60/61/94
f 43/49/95 58/59/95 60/61/95
f 58/59/96 47/44/96 60/61/96
f 44/41/97 46/43/97 61/62/97
f 47/44/98 44/41/98 61/62/98
f 40/52/99 47/44/99 61/62/99
f 39/42/100 49/47/100 62/63/100
f 55/56/101 39/42/101 62/63/101
f 45/45/102 55/56/102 62/63/102
f 57/58/103 45/45/103 62/63/103
f 49/47/11 57/58/11 62/63/11
f 46/43/104 33/54/104 63/64/104
f 33/54/105 51/51/105 63/64/105
f 51/51/106 40/52/106 63/64/106
f 40/52/107 61/62/107 63/64/107
f 61/62/108 46/43/108 63/64/108
f 37/48/109 50/50/109 64/35/109
f 50/50/110 42/33/110 64/35/110
f 52/34/111 37/48/111 64/35/111
